<?xml version="1.0" encoding="UTF-8"?>
<svg id="DESIGN" xmlns="http://www.w3.org/2000/svg" viewBox="0 0 1000 1000">
  <defs>
    <style>
      .cls-1 {
        fill: #232323;
      }

      .cls-2 {
        fill: #606060;
      }

      .cls-3 {
        fill: #e88c13;
      }

      .cls-4 {
        fill: #ff4d0b;
      }
    </style>
  </defs>
  <path class="cls-2" d="M872.34,465.27c-.14.1-.21.14-.21.14v-.03c.07-.03.14-.07.21-.1Z"/>
  <path class="cls-3" d="M943.86,389.07c-2.89,51.7-13.66,101.12-31.05,146.97-65.67,173.5-225.58,295.96-412.4,295.96-245.37,0-444.27-211.26-444.27-471.88,0,44.12,34.42,84.77,92.31,117.19,49.7,27.91,116.71,49.7,194.09,62.44,26.92,4.44,51.77,17.17,71.04,36.45l49.08,49.08c10.05,10.05,23.09,15.28,36.28,15.63h1.48c.52,0,1,.03,1.51,0,13.18-.34,26.23-5.58,36.28-15.63l49.08-49.08c19.27-19.27,44.12-32.01,71.04-36.45,77.34-12.73,144.35-34.52,194.09-62.4,6.92-3.89,13.49-7.88,19.72-11.94v-.03c.07-.03.14-.07.21-.1,3.41-1.93,45.98-27.05,71.52-76.2Z"/>
  <path class="cls-2" d="M872.34,465.27c-.14.1-.21.14-.21.14v-.03c.07-.03.14-.07.21-.1Z"/>
  <path class="cls-4" d="M810.16,222.38c-80.04-33.66-189.3-54.38-309.74-54.38-245.37,0-444.27,86.01-444.27,192.12,0,44.12,34.42,84.77,92.31,117.19.21-1.2.41-2.41.69-3.58.28-1.27.59-2.55.93-3.82.34-1.2.72-2.41,1.14-3.61.28-.89.62-1.79.96-2.68.1-.31.21-.62.34-.93.34-.89.69-1.79,1.1-2.68.1-.24.21-.52.34-.79.17-.45.38-.89.62-1.34.93-2,1.96-4.03,3.1-6.02,1.1-1.93,2.27-3.85,3.55-5.75.24-.34.48-.72.72-1.07.72-1.07,1.48-2.13,2.27-3.2.1-.14.21-.28.31-.45.79-1.07,1.62-2.13,2.48-3.17,1-1.27,2.06-2.55,3.17-3.79.83-.96,1.72-1.93,2.62-2.89,2.03-2.2,4.2-4.41,6.47-6.54,1.03-1,2.1-2,3.2-2.93,7.95-7.16,17.17-14.01,27.53-20.48,1.41-.86,2.82-1.76,4.27-2.62.1-.07.24-.14.38-.21,1.2-.76,2.44-1.48,3.72-2.2.96-.55,1.96-1.1,2.96-1.65,11.56-6.47,24.33-12.53,38.14-18.1,1.38-.55,2.75-1.1,4.13-1.65,1.72-.69,3.48-1.34,5.27-2,2-.79,4.03-1.51,6.09-2.24,3.03-1.14,6.13-2.2,9.29-3.24,2.51-.86,5.06-1.69,7.64-2.51,5.54-1.76,11.22-3.48,17.04-5.06,20.95-5.87,43.45-10.8,67.15-14.67,5.31-.87,9.24-5.41,9.24-10.79v-67.6h56.82c24.22,0,46.67,12.69,59.17,33.43l6.79,11.28,4.9,8.23c5.89,9.88,16.35,16.12,27.85,16.69,55.27,2.73,106.66,10.96,151.16,23.42,2.13.58,4.27,1.2,6.4,1.82,1.45.41,2.86.83,4.27,1.27.38.1.76.21,1.1.34,4.41,1.31,8.67,2.68,12.91,4.13.07,0,.1,0,.14.03,2.62.86,5.16,1.76,7.71,2.68,2.55.89,5.09,1.82,7.57,2.75.07.03.14.03.21.07,2.51.93,4.96,1.89,7.4,2.89,2.48.96,4.89,1.96,7.3,2.99,2.03.86,4.06,1.72,6.02,2.58,2.93,1.31,5.82,2.62,8.6,3.96,2.03.96,4.06,1.96,6.02,2.96,2.2,1.1,4.37,2.2,6.47,3.34,1.86.96,3.68,1.96,5.47,2.96.52.28,1,.55,1.48.86,1.82,1,3.58,2.03,5.33,3.1,1.96,1.17,3.89,2.34,5.78,3.55,1.89,1.2,3.75,2.41,5.58,3.65,3.61,2.44,7.09,4.92,10.43,7.5,1.65,1.27,3.27,2.55,4.85,3.85.79.62,1.55,1.27,2.31,1.93.76.65,1.51,1.31,2.27,2,.65.55,1.31,1.14,1.96,1.76,6.4,5.85,12.01,11.91,16.66,18.17.29-.22.59-.44.89-.66,78.47-58.58,63.31-180.29-26.96-218.25Z"/>
  <path class="cls-1" d="M596.64,471.05c-6.38,0-12.3-3.37-15.55-8.85l-21.36-35.83-63.9-107.21-6.79-11.28c-9.91-16.45-27.73-26.51-46.92-26.51h-42.53v43.92h35.38c6.38,0,12.3,3.37,15.57,8.85l18.17,30.51-63.93,107.29-25.65,43.04h54.22l32.33-54.26,30.16-50.58,20.5,34.44,25.98,43.63c9.89,16.61,27.77,26.77,47.07,26.77h42.34v-43.92h-35.09Z"/>
</svg>