<?xml version="1.0" encoding="UTF-8"?>
<svg id="Design" xmlns="http://www.w3.org/2000/svg" viewBox="0 0 1000 1000">
  <defs>
    <style>
      .cls-1 {
        fill: #ffc010;
      }

      .cls-2 {
        fill: #ff4d0b;
      }
    </style>
  </defs>
  <path class="cls-2" d="M780.96,621.54v143.08h-30.32c-98.17,0-189.99-48.55-245.27-129.67l-37.55-55.11-37.57,55.13c-55.28,81.12-147.1,129.66-245.27,129.66h-30.32v-143.08h0c64.3,0,124.28-32.37,159.58-86.11l67.85-103.3h-162.11c-83.43,0-158.38-51.03-188.95-128.66h0s343.79,0,343.79,0c58.79,0,113.62,29.59,145.9,78.72l100.65,153.24c35.3,53.74,95.28,86.11,159.58,86.11h0Z"/>
  <path class="cls-1" d="M968.97,235.38v57.45c0,19.74-12.91,37.17-31.79,42.92l-203.38,61.96c-1.27.39-2.55.8-3.82,1.22-73.82,24.45-92.93,104.36-63.21,161.06-11.34-10.03-21.46-21.64-30.01-34.66l-100.64-153.24c-17.5-26.65-41.59-48.73-69.65-63.88-25.92-13.98-54.95-21.88-84.35-22.99v-49.84h586.87Z"/>
</svg>